<svg id="Capa_1" data-name="Capa 1" xmlns="http://www.w3.org/2000/svg" viewBox="0 0 215.5 170"><defs><style>.cls-1{fill:#12808e;}</style></defs><title>recursos</title><path class="cls-1" d="M211.5,131.85c0,1.85,0,3.7,0,5.54,0,5.27-2.11,9.87-7.4,9.93h-17a19.58,19.58,0,0,1-2.46,8,19.09,19.09,0,0,1-12.09,9.09,24.2,24.2,0,0,1-5.89.77,18.37,18.37,0,0,1-10.09-2.88c-2.94-1.9-6.32-2.45-8.15-6.08a18.79,18.79,0,0,1-2-2.82,11.26,11.26,0,0,1-.42-1.18c-.34-1.09-2.49-3.19-2.66-4.94H73a19.8,19.8,0,0,1-10.44,15.52,21.19,21.19,0,0,1-10,2.67,18.75,18.75,0,0,1-12.3-4.7c-2.16-1.84-7.16-3.85-8.42-7.06a11.53,11.53,0,0,1-.5-1.4c0-.12-.66-1.46-.7-1.58s0-1.11-.06-1.18a16,16,0,0,1-.39-1.8h-2c-3.45,0-3.58-.45-7-.47a9.09,9.09,0,0,1-9.45-9.48q0-3,0-6c0-4.49,0-9.13,0-13.69.27-16.78,6.64-31.21,18.93-42.91A59.14,59.14,0,0,1,63,59.53l.22,0a7.72,7.72,0,0,0,2-.36,7.55,7.55,0,0,0,.12-1.79v-.17a2.45,2.45,0,0,0,0-.36,1.68,1.68,0,0,0-.44,0q-11.55,0-23.1,0H37.85a3,3,0,0,1-2.4-.61,2.12,2.12,0,0,1-.58-1.65C35,52.33,37.13,52.38,38,52.4h3.21A12.31,12.31,0,0,1,40,46.09c0-2.23,0-4.52,0-6.72,0-1.39,0-2.78,0-4.17a8.79,8.79,0,0,1,8.72-9,52.61,52.61,0,0,1,5.34,0,1.45,1.45,0,0,0,.64,0,2.18,2.18,0,0,0,.08-.7,9.88,9.88,0,0,1,19.76-.23c0,.35,0,.7,0,.93h.84c.53,0,1,0,1.53,0H77a2.4,2.4,0,0,1-1-2.36,8.84,8.84,0,0,1,8.66-8.23c2.68,0,5.48,0,8.54,0a2,2,0,0,0,.38,0c0-.06,0-.15,0-.29a9,9,0,0,1,8.89-8.81h.11a8.89,8.89,0,0,1,9,8.66,2.07,2.07,0,0,0,0,.44,2.78,2.78,0,0,0,.41,0c2.56-.07,5.16-.05,7.67,0h.58a8.72,8.72,0,0,1,8.88,8.74c.05,5.83.05,11.77.05,17.5V48a8.42,8.42,0,0,1-1.16,4.39h8v.29a2.17,2.17,0,0,1,1.19,2,2.05,2.05,0,0,1-.6,1.56,2.84,2.84,0,0,1-2.15.63h-4.89a3.41,3.41,0,0,1-.77,0h-1.06a3,3,0,0,1-.7.07c-3.41,0-6.81,0-10.22,0-3.06,0-6.12,0-9.18,0h-.35c0,.07,0,.17,0,.32v.18a7,7,0,0,0,.12,1.7,7.74,7.74,0,0,0,1.7.33A46.68,46.68,0,0,1,135.31,72c3.84,3.61,8.09,7.49,13.37,12.21,7.9,7.06,16.89,10.66,26.74,10.71a33.16,33.16,0,0,1,6.34.43l.58.09a32.83,32.83,0,0,1,15.16,6.11C208,109.09,211.43,118.91,211.5,131.85Z"/><path d="M158,121.48c-9.14.41-17,7.8-18.3,17.19a1.44,1.44,0,0,1-.15.59,4.2,4.2,0,0,1-.72.06q-13.52,0-27,0H68.5a2.12,2.12,0,1,0,0,4.24c.53,0,1,0,1.58,0h68.15c.87,0,1.69,0,2.51,0a3,3,0,0,0,2.3-.64,2.83,2.83,0,0,0,.77-2.17,14.34,14.34,0,0,1,.46-3.12A15.66,15.66,0,0,1,175,144c-1.34,7.76-6.71,12.77-14,13.08-7.56.3-12.91-3-15.89-9.76-.06-.14-.11-.28-.16-.41a2.06,2.06,0,0,0-2.58-1.68,2.13,2.13,0,0,0-1.48,1.1,2.71,2.71,0,0,0,.1,2.33c3.5,8.3,10,12.84,18.06,12.84a23.72,23.72,0,0,0,5.89-.77A19.11,19.11,0,0,0,177,151.63a20.29,20.29,0,0,0,1.9-15.09C176.52,127.08,168.11,121,158,121.48Z"/><path d="M44.45,135.89l.15,0a6.5,6.5,0,0,0,.9-.14,1.73,1.73,0,0,0,1.35-1.9,1.71,1.71,0,0,0-1.66-1.68,8.11,8.11,0,0,0-1.66.07A9.33,9.33,0,0,0,45,150.76h.45a8.75,8.75,0,0,0,6-2.48,8.6,8.6,0,0,0,2.82-6c0-.1,0-.2,0-.3a2.37,2.37,0,0,0-.41-1.8,1.9,1.9,0,0,0-1.35-.6,1.84,1.84,0,0,0-1.41.43,2.28,2.28,0,0,0-.62,1.73c0,.1,0,.21,0,.3a5.57,5.57,0,1,1-6.09-6.18Z"/><path d="M160.76,147a5.52,5.52,0,0,1-5.72-5l0-.15a6.5,6.5,0,0,0-.14-.9,1.74,1.74,0,0,0-1.9-1.35,1.71,1.71,0,0,0-1.68,1.66,8.06,8.06,0,0,0,.07,1.66,9.3,9.3,0,0,0,9.35,7.83,8.44,8.44,0,0,0,.87,0,9.27,9.27,0,0,0,8.32-9.32,8.68,8.68,0,0,0-2.48-6.45,8.56,8.56,0,0,0-6-2.82l-.3,0a2.36,2.36,0,0,0-1.8.41,1.9,1.9,0,0,0-.6,1.35,1.84,1.84,0,0,0,.43,1.41,2.28,2.28,0,0,0,1.72.62l.31,0a5.57,5.57,0,0,1-.46,11.09Z"/><path d="M82.57,101.82a2.21,2.21,0,0,0-1.62-.57,2.05,2.05,0,0,0-2.1,2.35c0,.11,0,.23,0,.34a18.33,18.33,0,0,0,0,2.87c0,.57.06,1.14,0,1.72-.09,6.41-.07,12.93-.06,19.24,0,2.13,0,4.26,0,6.4,0,.22,0,.45,0,.68v.21a2,2,0,0,0,2.09,2H81a2,2,0,0,0,2.11-2c0-.34,0-.69,0-1V103.78A2.52,2.52,0,0,0,82.57,101.82Z"/><path d="M49.41,32.7a2,2,0,0,0-2.21-2.09,2.35,2.35,0,0,0-1.79.59,2.08,2.08,0,0,0-.56,1.53c0,1.11,0,2.23,0,3.34v3c0,1.26,0,2.53,0,3.79a2,2,0,0,0,.56,1.46,2.34,2.34,0,0,0,1.7.61h0a2,2,0,0,0,2.26-2.09q0-4.34,0-8.68Z"/><path d="M69.21,32.78A2,2,0,0,0,67,30.61a2.34,2.34,0,0,0-1.77.57,2.11,2.11,0,0,0-.55,1.55q0,5,0,10a2.12,2.12,0,0,0,.57,1.57,2.27,2.27,0,0,0,1.65.57H67a2,2,0,0,0,2.24-2.19c0-1.21,0-2.41,0-3.62Z"/><path d="M53.07,72.64q7.22,0,14.43,0h7.7a6.17,6.17,0,0,0,1.27-.06,2.17,2.17,0,0,0,0-4.28,5.24,5.24,0,0,0-1.09-.07H68.36c-4.89,0-9.79,0-14.69,0h-.1a26.84,26.84,0,0,0-13.44,3.33C30.93,76.8,26,84.76,25.53,95.24a2.92,2.92,0,0,0,.57,2.26,2.83,2.83,0,0,0,2.17.68H63l8.4,0a3.1,3.1,0,0,0,.45,0h3.44a4.61,4.61,0,0,0,.56,0h0q5.92,0,11.85,0h41c3.68,0,4.52-1.68,5.6-3.82,1-1.93.23-4.33-1.87-6.11L129.81,86c-4.89-4.14-10-8.42-15-12.58a21.09,21.09,0,0,0-11.73-4.94,128.45,128.45,0,0,0-13.57-.22l-3.8.06A6.85,6.85,0,0,0,79.11,74a75.45,75.45,0,0,0-.32,11.62c0,1.45.08,2.9.08,4.35a2.12,2.12,0,0,0,4.1.63,5,5,0,0,0,.18-1.6v-.11c0-1.72,0-3.43,0-5.14,0-2.44,0-4.89,0-7.33s1.2-3.75,3.71-3.75q6.87,0,13.74,0a16.53,16.53,0,0,1,10.59,3.53c4.89,3.94,9.77,8.08,14.49,12.08l4.19,3.53a1.14,1.14,0,0,1,.42.88,1.11,1.11,0,0,1-.37.86c-.28.26-.66.26-1.3.25H71.86a2.06,2.06,0,0,0-.36,0c-5.41,0-10.82,0-16.3,0v0H39.35a4.57,4.57,0,0,0-.74,0H32.93c-.87,0-1.77,0-2.66,0H30c0-.08,0-.18,0-.31A23.32,23.32,0,0,1,53.07,72.64ZM52,97.19Z"/><path d="M189.91,97.81a32.73,32.73,0,0,0-15.16-6.12l-.58-.09a33.9,33.9,0,0,0-6.34-.43c-9.84,0-18.84-3.65-26.74-10.7-5.28-4.72-9.53-8.61-13.37-12.22a46.68,46.68,0,0,0-26.1-12.65,7.73,7.73,0,0,1-1.71-.33,13.25,13.25,0,0,1-.12-1.88,2.21,2.21,0,0,1,0-.32h25.56c.54,0,1.07,0,1.6,0a2.88,2.88,0,0,0,2.15-.63,2.1,2.1,0,0,0,.6-1.57,2.16,2.16,0,0,0-1.19-2l-8-.3a8.42,8.42,0,0,0,1.16-4.39V38c0-5.73,0-11.66,0-17.5a8.72,8.72,0,0,0-8.88-8.74h-.58c-2.51,0-5.11,0-7.67,0a2.78,2.78,0,0,1-.41,0,2,2,0,0,1-.05-.43,8.9,8.9,0,0,0-9-8.67H95a9,9,0,0,0-8.89,8.81c0,.14,0,.23,0,.3h-.39c-3.06-.06-5.86-.06-8.54,0A8.85,8.85,0,0,0,68.45,20a2.39,2.39,0,0,0,1,2.35H67.8l-.84,0c0-.23,0-.58,0-.92A9.9,9.9,0,0,0,55.18,12a9.67,9.67,0,0,0-8,9.69,2.18,2.18,0,0,1-.08.7,1.38,1.38,0,0,1-.64,0,52.61,52.61,0,0,0-5.34,0,8.78,8.78,0,0,0-8.71,9q0,2.09,0,4.17c0,2.21,0,4.49,0,6.72a12.31,12.31,0,0,0,1.2,6.32h-3.2c-.83,0-3-.08-3.09,2.15a2.14,2.14,0,0,0,.58,1.66c.68.67,2.67.59,2.79.59s19,0,26.65,0a1.68,1.68,0,0,1,.44,0,2.45,2.45,0,0,1,0,.36v.17a7.55,7.55,0,0,1-.12,1.79,7.7,7.7,0,0,1-2,.36l-.23,0A59.14,59.14,0,0,0,23,71.48C10.7,83.18,4.33,97.62,4.06,114.39,4,119,4,132.1,4,134.11a9.08,9.08,0,0,0,9.46,9.47c3.45,0,6.91,0,10.36,0h3c2.31,0,2.88-.53,3-2.84a16,16,0,0,1,6-11.57A15.32,15.32,0,0,1,48,126c6.86,1.12,12.47,7,13.07,13.59.68,7.72-3.48,14.3-10.62,16.76-6.79,2.34-13.74.36-17.3-4.91a17.18,17.18,0,0,1-2.09-4.6,2.1,2.1,0,0,0-2.54-1.55,2,2,0,0,0-1.42.95,1.93,1.93,0,0,0-.17,1.61,19.45,19.45,0,0,0,5.71,9.26,18.77,18.77,0,0,0,12.3,4.7,21,21,0,0,0,10-2.67,20,20,0,0,0-9.68-37.64h-.32a20,20,0,0,0-19.26,17.46c0,.24-.07.35-.06.37a1.66,1.66,0,0,1-.45,0c-2.48,0-5,0-7.43,0H14.39c-4.19,0-6.06-1.87-6.07-6.05,0,0,0-12.41,0-17.7A56.57,56.57,0,0,1,10.21,101,55.44,55.44,0,0,1,64.3,59.58h0c3,0,23.18,0,30.34,0,11.59-.09,21.43,3.79,30.09,11.89l1,.92c4.74,4.44,9.65,9,14.76,13.24a44.16,44.16,0,0,0,26,9.93c2.29.18,5.48.19,5.55.19a19.56,19.56,0,0,1,2.93.44c13,2.94,21.59,10.94,25.43,23.78,1.12,3.72,1.08,7.48,1,11.47,0,.73,0,1.45,0,2.17,0,3.83-1.88,5.7-5.76,5.71q-6.37,0-12.75,0a3,3,0,0,0-2.15.66,2,2,0,0,0-.55,1.55c0,.78.4,2.07,2.64,2.07h0c1.6,0,12.14,0,13.62,0a9.24,9.24,0,0,0,9.32-9.35c0-1.84,0-3.69,0-5.53C205.78,115.75,200.42,105.35,189.91,97.81ZM51.4,22.37a5.85,5.85,0,0,1,4.49-6.09,5.53,5.53,0,0,1,6.45,3.87l0,.15a2.45,2.45,0,0,1,.08.29,11.3,11.3,0,0,1,.23,1.66,5.31,5.31,0,0,1-1.68.14h-3.1l-2.58,0c-1.31,0-2.63,0-3.94,0Zm21.43-1.69c.6-3.44,1.85-4.49,5.35-4.49,3.22,0,25.82,0,33.88-.05h.1a5.3,5.3,0,0,1,3.9,1.45,5.2,5.2,0,0,1,1.39,3.91c-.07,3.53,0,23.45,0,23.45-.15.27-.26.54-.38.81a6.14,6.14,0,0,1-.32.69,4.17,4.17,0,0,1-2.72,2.15H80.55a8.66,8.66,0,0,0,1.11-4.21s0-9.37,0-13.34a8.65,8.65,0,0,0-7.94-8.56c-.63-.05-1.26-.08-1.89-.1A2.44,2.44,0,0,0,72.83,20.68ZM77.2,44a4.38,4.38,0,0,1-4.74,4.63H41.7c-3.25,0-5-1.73-5-5,0-4.07,0-8,0-11.75,0-3.25,1.88-5.12,5.09-5.12q15.24,0,30.47,0c3.17,0,4.93,1.75,4.95,4.91C77.24,35.89,77.24,40,77.2,44ZM62.09,54.84a10,10,0,0,1,.08-1.68c.27-.08,25-.07,32.72-.11a1.63,1.63,0,0,1,.53,0,2.86,2.86,0,0,1,0,.52v.19a10,10,0,0,1-.08,1.31c-.27,0-28.88.06-32.94.09H62.1s0-.12,0-.21Zm33-47.78A4.79,4.79,0,0,1,98.5,8.52a4.52,4.52,0,0,1,1.34,3.27h0c-1.15,0-2.3,0-3.45,0H93.67c-1.09,0-2.18,0-3.26,0a4.51,4.51,0,0,1,1.25-3.25,4.78,4.78,0,0,1,3.42-1.48Z"/></svg>