<svg id="Capa_1" data-name="Capa 1" xmlns="http://www.w3.org/2000/svg" viewBox="0 0 170 170"><defs><style>.cls-1{fill:#f9a703;}</style></defs><title>iconos</title><path class="cls-1" d="M117,135.14h-3.59l9.75-27.74a19.43,19.43,0,0,0,1.69-8.21c0-2.91-2.51-7.8-2.51-7.8L97.83,47s-2.33-4.62-4.61-4.62-4.07,4.27-4.07,4.27L63.16,93s-2.5,3.8-2.46,6.94a21.72,21.72,0,0,0,1.42,5.59l10.61,29.57h-3.6a3.57,3.57,0,0,0-3.57,3.57v4.5a3.56,3.56,0,0,0,3.57,3.56l3.8.09.13,17.07a3.57,3.57,0,0,0,3.57,3.57h32.92a3.57,3.57,0,0,0,3.57-3.57l-.06-17.16h4a3.56,3.56,0,0,0,3.57-3.56v-4.5A3.57,3.57,0,0,0,117,135.14Z"/><path d="M118.74,93l-31.49-57a2.15,2.15,0,0,0-1.89-1.12h0A2.16,2.16,0,0,0,83.46,36L51.33,93.66a2.16,2.16,0,0,0-.15,1.79l11.54,32.23H62.1a5.6,5.6,0,0,0-5.59,5.59v4.31a5.6,5.6,0,0,0,5.59,5.58h1.73a5.7,5.7,0,0,0-.14,1.25v13.73a5.59,5.59,0,0,0,5.59,5.58h31.51a5.58,5.58,0,0,0,5.58-5.58V144.41a5.7,5.7,0,0,0-.14-1.25H108a5.6,5.6,0,0,0,5.58-5.58v-4.31a5.6,5.6,0,0,0-5.58-5.59h-.64L118.89,94.8A2.19,2.19,0,0,0,118.74,93ZM102,144.41v13.73a1.25,1.25,0,0,1-1.25,1.25H69.28A1.25,1.25,0,0,1,68,158.14V144.41a1.25,1.25,0,0,1,1.25-1.25h31.51A1.25,1.25,0,0,1,102,144.41Zm7.17-11.14v4.31a1.25,1.25,0,0,1-1.24,1.24H62.1a1.25,1.25,0,0,1-1.25-1.24v-4.31A1.25,1.25,0,0,1,62.1,132H108A1.25,1.25,0,0,1,109.21,133.27Zm-6.33-6H67.17L55.6,94.92,83.1,45.58V89.79a2.17,2.17,0,1,0,4.34,0V45.36l27,48.92Z"/><path d="M160.81,71.18h-3.35A74.06,74.06,0,0,0,109,13.05h39a7.95,7.95,0,1,0-.2-4.34H93.72V6A3.54,3.54,0,0,0,90.19,2.5H79.64A3.55,3.55,0,0,0,76.1,6V8.71H22.21a8,8,0,1,0-.2,4.34h38.8A73.85,73.85,0,0,0,12.34,71.18H9.19a3.54,3.54,0,0,0-3.53,3.54V85.27A3.54,3.54,0,0,0,9.19,88.8H19.74a3.54,3.54,0,0,0,3.54-3.53V74.72a3.55,3.55,0,0,0-3.54-3.54h-3A69.57,69.57,0,0,1,76.1,13.86v2.72a3.55,3.55,0,0,0,3.54,3.54H90.19a3.54,3.54,0,0,0,3.53-3.54V13.86a69.53,69.53,0,0,1,59.35,57.32h-2.81a3.55,3.55,0,0,0-3.54,3.54V85.27a3.54,3.54,0,0,0,3.54,3.53h10.55a3.54,3.54,0,0,0,3.53-3.53V74.72A3.54,3.54,0,0,0,160.81,71.18ZM18.94,84.46H10V75.52h8.94ZM14.47,14.15a3.62,3.62,0,1,1,3.61-3.62A3.63,3.63,0,0,1,14.47,14.15Zm74.91,1.63H80.44V6.84h8.94Zm66.15-8.86a3.62,3.62,0,1,1-3.61,3.61A3.62,3.62,0,0,1,155.53,6.92ZM160,84.46h-8.94V75.52h2.61a1,1,0,0,0,0,.16l1.5-.16H160Z"/></svg>