<svg id="Capa_1" data-name="Capa 1" xmlns="http://www.w3.org/2000/svg" viewBox="0 0 180.22 170"><defs><style>.cls-1{fill:#12808e;}</style></defs><title>recursos</title><path class="cls-1" d="M158.31,100.14c-5.44,3-9.19,7.59-12.15,14.78-3.69,9-5.45,19.27-5.37,31.44,0,5.79-2.3,12.68-8,15.26-12.41,5.65-25.57,6.38-38,6.64-10.85-.1-21.86.63-34.22-3.82-8.38-3-11.82-10.91-11.38-18.62.41-7,.46-22-1.95-30.41-3.19-11.09-7.82-18-16.26-23.77C18.43,83,11.38,74.17,15.5,58.61,20,41.69,34.83,34.18,49.32,34.18c1.06,0,2.13,0,3.2.15C59,35,61.63,32.7,64.45,28,72.19,15.17,84.26,8.65,99.39,9.13s26.46,7.58,33.75,21.08c2,3.71,4,4.74,8.19,4.23,17-2,28.51,8.7,33.56,24.58C180,75.22,173.38,91.74,158.31,100.14Z"/><path d="M167,55.11c-5.05-15.88-20.46-25.54-37.48-23.49-4.19.51-6.18-.52-8.19-4.23C114,13.89,102.64,6.8,87.54,6.31s-27.2,6-34.94,18.89c-2.82,4.68-5.44,6.94-11.93,6.31-1.07-.1-2.14-.15-3.2-.15-14.49,0-27.34,9.48-31.93,24C.68,70.65,6.77,87.25,20,94.8c8.26,4.7,13.36,11.73,16.55,22.82a68.07,68.07,0,0,1,3,22.86c-.44,7.71,2.94,12.29,11.32,15.3,12.36,4.45,25.12,5.15,36,5.25,12.43-.26,25.59-1,38-6.64,5.66-2.58,8.06-6.15,8-11.94-.08-12.17,1.68-22.46,5.37-31.44,3-7.19,6.71-11.75,12.15-14.78C165.45,87.83,172.11,71.31,167,55.11Zm-42.6,94.56-.36.2c-7.35,3.92-15.37,5.17-22.24,5.88a162.42,162.42,0,0,1-16.81.93,100.12,100.12,0,0,1-30.35-4.29c-.51-.16-1.06-.31-1.63-.47-3.43-.95-8.13-2.25-8-6.59.12-3.87,4.38-4.74,7.8-5.43.69-.15,1.36-.28,2-.44,11.12-2.84,22.48-3.19,33.06-3.16a128,128,0,0,1,26.42,2.33,65.23,65.23,0,0,1,9.2,2.63l.53.18c1.63.57,4.09,1.42,4,4.22C127.82,147.87,125.82,148.91,124.36,149.67Zm4.89-20.26h0c-.36,3.91-.52,5.69-1.78,6.61s-2.83.51-6.07-.22l-.9-.21c-24.67-5.49-48.58-5.19-71.06.91a11.09,11.09,0,0,1-2.78.49,2.89,2.89,0,0,1-1.71-.49c-1-.72-1.34-2.09-1.49-3.93-.79-9.51-.65-11.15,9-13.33a148.2,148.2,0,0,1,69.31.47c3,.74,6.2,1.73,7.52,4.26A6.56,6.56,0,0,1,129.25,129.41Zm20.08-37.76c-7.87,4.41-13.16,11.18-16.19,20.71-.7,2.18-1.52,4.36-3.35,5a3.22,3.22,0,0,1-1.08.18,6.83,6.83,0,0,1-3.66-1.43,1.29,1.29,0,0,1-.31-.07c-10.1-3.64-10.59-4.64-7.43-15.18a40.21,40.21,0,0,1,9.2-16.21c.89-1,1.72-2,1.68-2.83a2.18,2.18,0,0,0-.88-1.44c-1.45-1.28-2.37-.57-4.13,1.36l-.09.09A45,45,0,0,0,111.5,107.7c-.17,1.55-.48,3.1-1.63,4-.89.68-2.1.85-3.94.56a68.11,68.11,0,0,0-11.47-.74c-2.43,0-3.95-.43-4.95-1.51s-1.33-2.56-1.15-4.7a74.32,74.32,0,0,0,.11-7.61c0-1.14,0-2.28,0-3.42v-4c0-2.51,0-5.11,0-7.66,0-.23,0-.47,0-.72,0-1.24,0-2.52-.59-3.08a2.2,2.2,0,0,0-1.66-.41c-1.79.07-2,1.08-2,3.55v.5c0,1.63,0,3.26,0,4.89,0,5.86-.1,11.93.1,17.87.07,2.41-.34,3.93-1.35,5s-2.46,1.42-4.62,1.38a71.94,71.94,0,0,0-12,.75,4.52,4.52,0,0,1-3.59-.56c-1.11-.85-1.37-2.35-1.54-3.83A45.45,45.45,0,0,0,49.93,82.37l-.52-.59c-1.7-2-2.54-2.7-4-1.46a2.46,2.46,0,0,0-1.05,1.53c-.06.86.88,1.88,1.78,2.87.19.21.39.42.57.63a42.48,42.48,0,0,1,10.07,22.53c.43,3,.22,6.1-4.66,7a17.47,17.47,0,0,0-3.69,1.28c-2.26,1-4.4,1.86-6.11,1-1.87-.92-2.6-3.37-3.38-6a26.92,26.92,0,0,0-1.1-3.22c-3.35-7.33-7.79-12.38-14-15.89C12.58,85.68,7.3,75.56,8.58,62.77,9.9,49.66,17.26,40.72,29.88,36.9c12-3.63,23-.43,31.75,9.23.39.43.73.88,1.07,1.31a14.77,14.77,0,0,0,1,1.26c1.54,1.66,2.7.71,3.07.39.64-.52,1.36-1.42.23-3.15a26.5,26.5,0,0,0-9.6-9.16c-1.9-1-2.94-2.07-3.3-3.37-.45-1.7.41-3.41,1.41-5,7.92-12.61,19-18.54,33-17.64,14.31.92,24.8,8.46,30.31,21.8,1.85,4.48,3.24,5.18,7.79,4a30.08,30.08,0,0,1,22.71,55.09Z"/><path d="M43.47,49.24c.05,1.89-.84,2.11-3.39,2.26l-1,.06c-8.65.78-14.47,6.12-16,14.67-.06.36-.11.74-.16,1.13-.33,2.51-.59,3.36-2.38,3.2A2.32,2.32,0,0,1,19,69.89c-.58-.74-.4-2.22-.23-3.53,0-.29.07-.58.1-.85,1.05-10.06,10.09-18.13,20.58-18.36h.73C42.44,47.14,43.43,47.33,43.47,49.24Z"/><path d="M152.27,70.58c-1.65.2-2-.63-2.5-3.11-2.16-10.43-7-15-16.53-15.92l-.42,0c-1.36-.12-2.77-.24-3.31-.9a2.15,2.15,0,0,1-.26-1.63c.19-1.56,1-1.82,2.84-1.82h.53c.41,0,.82,0,1.2,0,10.58.41,20,9.61,20.23,19.71C154.1,69.52,153.86,70.37,152.27,70.58Z"/><path d="M107.54,37.32c-1.54.62-2.08-.09-3.23-2.35-4.8-9.51-10.62-12.71-20.1-11.07L83.8,24c-1.35.24-2.74.49-3.43,0a2.16,2.16,0,0,1-.68-1.5c-.22-1.56.48-2,2.27-2.5l.51-.14c.4-.1.8-.19,1.16-.31,10.32-2.36,21.84,4.06,24.66,13.76C109,35.82,109,36.7,107.54,37.32Z"/></svg>