<svg id="Capa_1" data-name="Capa 1" xmlns="http://www.w3.org/2000/svg" viewBox="0 0 203.78 170"><defs><style>.cls-1{fill:#f9a703;}</style></defs><title>iconos</title><path class="cls-1" d="M189,11.12H24.41a9.62,9.62,0,0,0-9.6,9.61v112a9.62,9.62,0,0,0,9.6,9.61h77.73v16.58H79.4c-1.51,0-3.36,2.35-3.36,4.29,0,2.1,1.85,4.3,3.36,4.3H134c1.51,0,3.39-1.36,3.36-4.3,0-2.43-1.85-4.29-3.36-4.29H111.24V142.33H189a9.62,9.62,0,0,0,9.6-9.61v-112A9.62,9.62,0,0,0,189,11.12Z"/><path d="M184.73,2.5H14.53A9.34,9.34,0,0,0,5.2,11.82V127.66A9.35,9.35,0,0,0,14.53,137H96v16.89H71.4a3.69,3.69,0,0,0,0,7.37h56.46a3.69,3.69,0,1,0,0-7.37H103.32V137h81.41a9.34,9.34,0,0,0,9.33-9.33V11.82A9.33,9.33,0,0,0,184.73,2.5ZM14.53,6.92h170.2a4.9,4.9,0,0,1,4.9,4.9V103.5H9.63V11.82A4.91,4.91,0,0,1,14.53,6.92Zm170.2,125.64H14.53a4.91,4.91,0,0,1-4.9-4.9V107.92h180v19.74A4.9,4.9,0,0,1,184.73,132.56Z"/><path d="M53.94,59.84,81.72,78a2.27,2.27,0,0,0,1.21.36,2.21,2.21,0,0,0,1.21-4.06L59.2,58,85.92,40.61a2.21,2.21,0,0,0-2.41-3.71L53.94,56.14a2.21,2.21,0,0,0,0,3.7Z"/><path d="M114.55,78.64a2.27,2.27,0,0,0,1.21-.36L145.32,59a2.21,2.21,0,0,0,0-3.7L117.54,37.17a2.21,2.21,0,0,0-2.42,3.71l24.94,16.31L113.34,74.57a2.22,2.22,0,0,0,1.21,4.07Z"/><path d="M91.55,86.83a2.08,2.08,0,0,0,.6.09,2.22,2.22,0,0,0,2.13-1.61l15-52.72a2.21,2.21,0,1,0-4.26-1.2L90,84.1A2.21,2.21,0,0,0,91.55,86.83Z"/><circle cx="99.63" cy="118.67" r="4.18"/></svg>