<svg id="Capa_1" data-name="Capa 1" xmlns="http://www.w3.org/2000/svg" viewBox="0 0 170 170"><defs><style>.cls-1{fill:#f9a703;}.cls-2{fill:#191918;}</style></defs><title>iconos</title><path class="cls-1" d="M145.53,167.5H32.85a5.65,5.65,0,0,1-5.65-5.66V15a5.66,5.66,0,0,1,5.65-5.67h87L151.17,41v120.8A5.64,5.64,0,0,1,145.53,167.5Z"/><path class="cls-2" d="M76.48,29H36.16a2.18,2.18,0,0,0,0,4.35H76.48a2.18,2.18,0,0,0,0-4.35Z"/><path class="cls-2" d="M76.48,40.06H36.16a2.18,2.18,0,0,0,0,4.35H76.48a2.18,2.18,0,0,0,0-4.35Z"/><path class="cls-2" d="M128.17,78.5H87.85a2.18,2.18,0,0,0,0,4.35h40.32a2.18,2.18,0,0,0,0-4.35Z"/><path class="cls-2" d="M128.17,92.22H87.85a2.17,2.17,0,1,0,0,4.34h40.32a2.17,2.17,0,1,0,0-4.34Z"/><path class="cls-2" d="M128.17,105.93H87.85a2.18,2.18,0,0,0,0,4.35h40.32a2.18,2.18,0,0,0,0-4.35Z"/><path class="cls-2" d="M128.17,119.65H87.85a2.17,2.17,0,1,0,0,4.34h40.32a2.17,2.17,0,1,0,0-4.34Z"/><path class="cls-2" d="M128.17,133.37H87.85a2.17,2.17,0,1,0,0,4.34h40.32a2.17,2.17,0,1,0,0-4.34Z"/><path class="cls-2" d="M34.33,144H77.27V57.29H34.33ZM58.2,100.65,72.93,69.22v62.85Zm13.49,39H39.92L55.8,105.76ZM55.8,95.53,39.92,61.64H71.69Zm-2.4,5.12L38.68,132.07V69.22Z"/><path class="cls-2" d="M107.8,3.81a2.18,2.18,0,0,0-.72-.73l-.57-.58h-80a7.68,7.68,0,0,0-7.66,7.67V152.7a7.68,7.68,0,0,0,7.66,7.67H136.12a7.68,7.68,0,0,0,7.66-7.67V40.13Zm.32,6.49L137.2,39.66l-25.76-.2a3.32,3.32,0,0,1-3.32-3.32Zm28,145.72H26.49a3.32,3.32,0,0,1-3.32-3.32V10.17a3.33,3.33,0,0,1,3.32-3.33h77.28v29.3a7.67,7.67,0,0,0,7.65,7.66l28,.22V152.7A3.32,3.32,0,0,1,136.12,156Z"/></svg>