<svg id="Capa_1" data-name="Capa 1" xmlns="http://www.w3.org/2000/svg" viewBox="0 0 40 40"><defs><style>.cls-1{fill:#fff;}</style></defs><title>icono</title><path class="cls-1" d="M20,0A20,20,0,1,1,0,20,20,20,0,0,1,20,0Zm.18,1.78A18.23,18.23,0,1,0,38.22,20.21,18.19,18.19,0,0,0,20.13,1.78Z"/><path class="cls-1" d="M17.52,22c0-1.25-.05-2.5,0-3.75,0-.63-.48-1.69.5-1.8s2.45-.72,3.25.43c.41.59.47.36.84.14,3.7-2.18,7-.37,7.1,3.95.06,1.84-.08,3.69,0,5.53s-1,1.37-2,1.38-2.07.29-1.94-1.41a49.05,49.05,0,0,0,0-5c0-1.24-.43-2.33-1.89-2.32s-2.09,1-2.1,2.36c0,1.72,0,3.45,0,5.18s-1.31,1.07-2.14,1.17-1.85.28-1.75-1.22,0-3.09,0-4.64Z"/><path class="cls-1" d="M15.39,22c0,1.55,0,3.1,0,4.64,0,.91-.26,1.24-1.21,1.27-2.68.09-2.68.13-2.68-2.47s.09-5.12,0-7.68c-.08-1.68,1-1.43,2-1.41s2.12-.37,2,1.37C15.29,19.16,15.38,20.59,15.39,22Z"/><path class="cls-1" d="M15.48,12.36a1.86,1.86,0,0,1-1.83,2,1.79,1.79,0,0,1-2.07-1.89,1.81,1.81,0,0,1,2-2A1.87,1.87,0,0,1,15.48,12.36Z"/></svg>