<svg id="Capa_1" data-name="Capa 1" xmlns="http://www.w3.org/2000/svg" viewBox="0 0 40 40"><defs><style>.cls-1{fill:#fff;}</style></defs><title>icono</title><path class="cls-1" d="M20.12,0A20,20,0,1,1,0,19.85,19.93,19.93,0,0,1,20.12,0ZM1.77,19.84A18.23,18.23,0,1,0,20,1.77,18.28,18.28,0,0,0,1.77,19.84Z"/><path class="cls-1" d="M30.34,20c0,1.55,0,3.1,0,4.64a5.56,5.56,0,0,1-5.43,5.73c-3.26.15-6.54.16-9.81,0s-5.4-2.56-5.44-5.9q-.06-4.45,0-8.92a5.59,5.59,0,0,1,5.69-5.82c3.09-.07,6.18-.06,9.27,0a5.6,5.6,0,0,1,5.72,5.8C30.37,17,30.34,18.47,30.34,20Zm-1.71,0c0-1.49,0-3,0-4.46a3.9,3.9,0,0,0-4-4.12c-3.09-.09-6.19-.09-9.28,0a3.86,3.86,0,0,0-4,4.14c-.05,3,0,5.95,0,8.92a4,4,0,0,0,4.27,4.23c2.92,0,5.83,0,8.74,0a4,4,0,0,0,4.25-4.26C28.66,22.92,28.63,21.43,28.63,20Z"/><path class="cls-1" d="M14.57,20A5.42,5.42,0,1,1,25.41,20,5.42,5.42,0,1,1,14.57,20Zm9,.08a3.55,3.55,0,0,0-7.09-.17,3.55,3.55,0,1,0,7.09.17Z"/><path class="cls-1" d="M26.82,14.34c-.08.79-.47,1.19-1.16,1.19a1.08,1.08,0,0,1-1.21-1.21,1.07,1.07,0,0,1,1.15-1.11A1.12,1.12,0,0,1,26.82,14.34Z"/></svg>