<svg id="Capa_1" data-name="Capa 1" xmlns="http://www.w3.org/2000/svg" viewBox="0 0 40 40"><defs><style>.cls-1{fill:#fff;}</style></defs><title>icono</title><path class="cls-1" d="M20,40A20,20,0,1,1,40,20.05,19.95,19.95,0,0,1,20,40Zm0-1.78A18.22,18.22,0,1,0,1.78,20.1,18.2,18.2,0,0,0,20,38.22Z"/><path class="cls-1" d="M9.63,20.05c0-1.72,0-3.44,0-5.16,0-.89.21-1.31,1.18-1.28,1.78.05,3.57-.07,5.35,0a3.25,3.25,0,0,1,2.64,5.25c-.5.76-.37,1,.24,1.49a3.2,3.2,0,0,1,.87,3.74,3.53,3.53,0,0,1-3.14,2.56c-2.07.13-4.16,0-6.24.06-.88,0-.9-.54-.89-1.17Zm4.78,4c.47,0,.83,0,1.18,0,1-.05,1.79-.48,1.79-1.56S16.61,21,15.6,21c-.53,0-1.07.05-1.59,0-1.31-.18-1.69.31-1.73,1.65C12.23,24.52,13.5,24,14.41,24.07Zm-.14-5.2c1-.06,2.42.29,2.42-1.28s-1.33-1.26-2.32-1.22-2.09-.51-2.07,1.28S13.42,18.77,14.27,18.87Z"/><path class="cls-1" d="M25.73,26.75a4.7,4.7,0,0,1-5-4.47A4.68,4.68,0,0,1,24.87,17a4.77,4.77,0,0,1,5.54,3.61c.23,1.07.11,1.67-1.24,1.59-1.53-.11-3.08,0-4.63,0-1.11,0-1.2.47-.75,1.32a2,2,0,0,0,3.51.29c.27-.35.28-1,.89-1s1.6-.36,2,.2-.18,1.22-.52,1.77A4.33,4.33,0,0,1,25.73,26.75Zm-.17-5.93c.64-.23,1.74.37,1.84-.49S26.5,19,25.61,19s-1.88.47-1.82,1.32S25,20.58,25.56,20.82Z"/><path class="cls-1" d="M25.44,16.35c-.65,0-1.31,0-2,0s-.88-.39-.87-1,.09-1.06.84-1.06c1.43,0,2.85,0,4.27,0,.73,0,.87.41.87,1s-.08,1.06-.84,1S26.21,16.35,25.44,16.35Z"/></svg>