<svg id="Capa_1" data-name="Capa 1" xmlns="http://www.w3.org/2000/svg" viewBox="0 0 1139 299"><defs><style>.cls-1{fill:#f9a703;}</style></defs><title>iman</title><path class="cls-1" d="M521.88,262.83c-63-18.86-90-92.91-55.1-148.65a107.44,107.44,0,0,1,22.93-25.53c10.78-8.92,21.45-18,32.09-27.07,5.05-4.31,7.67-4.36,12.3.25l24.61,24.62c4,4,4,7.26-.19,10.87-10.63,9.11-21.27,18.19-32.09,27.07-8.73,7.15-16.77,14.68-20.85,25.65a49.1,49.1,0,0,0,84.79,47.4c8.21-10.41,17-20.33,25.6-30.47,2-2.38,4-4.82,6.13-7.12,3.13-3.36,6.52-3.42,9.79-.21,4.47,4.4,8.88,8.87,13.31,13.3q6.33,6.31,12.64,12.64c3.44,3.46,3.72,6.49.63,10.18-7,8.35-14,16.6-21,24.89-3.72,4.37-7.27,8.91-11.21,13.08C597.32,264.42,562.2,274.9,521.88,262.83Z"/><path class="cls-1" d="M664,75.24C657.83,82,651.4,88.39,645.07,94.92c-3.13,3.22-6.23,6.47-9.39,9.65-2.49,2.51-4.95,2.84-7.21,1.07-2.08-1.62-2.4-4.07-.81-7.06,2.18-4.11,4.44-8.18,7-12.94-4.1,0-7.33,0-10.55,0-2.28,0-4.49-.67-4.94-3a7.49,7.49,0,0,1,1-5.42c7.34-9.51,14.93-18.82,22.45-28.19,1.78-2.2,4-3.1,6.62-1.56s3,3.79,2,6.51c-1.42,3.91-2.78,7.85-4.44,12.59h13.62c2.28,0,4.52.75,4.88,3A7.56,7.56,0,0,1,664,75.24Z"/><path class="cls-1" d="M663.39,177.77c-4.41-4.3-8.73-8.7-13.09-13.06h0c-4.28-4.29-8.6-8.54-12.85-12.87-3.3-3.38-3.44-6-.5-9.62,3.84-4.69,7.7-9.35,11.65-13.94,3.4-4,7-4.13,10.73-.42q12.93,12.79,25.72,25.71c3.38,3.4,3.39,6.65.32,10.23-3.87,4.52-7.66,9.11-11.57,13.6C670.4,181.31,667.14,181.44,663.39,177.77Z"/><path class="cls-1" d="M591,70c-4.82,4.17-9.74,8.23-14.66,12.26-3,2.46-5.91,2.41-8.68-.27-4.58-4.44-9-9-13.54-13.51l0,0c-4.28-4.29-8.6-8.54-12.84-12.87-3.8-3.88-3.68-7.11.4-10.63,4.59-4,9.22-7.87,13.85-11.78,3.07-2.59,6.45-2.69,9.29.11q13.51,13.32,26.82,26.84C594.76,63.4,594.45,67,591,70Z"/></svg>