<svg id="Capa_1" data-name="Capa 1" xmlns="http://www.w3.org/2000/svg" viewBox="0 0 176.05 170"><defs><style>.cls-1{fill:#12808e;}</style></defs><title>recursos</title><path class="cls-1" d="M27.46,126.73c.87,1.43,1.35,2.22,1.06,3.15s-1.11,1.28-2.61,2a17.06,17.06,0,0,0,4.31,32.46,17,17,0,0,0,18.4-10.2l.38-.83c.08-.16.16-.34.25-.54l-3.12-1.94,5.2,2c3.11,7.61,8.47,11.55,15.94,11.71,7.74.17,13.36-3.76,16.7-11.65l-3-2,5.11,2.05c3.22,7.73,8.7,11.64,16.3,11.64h.07c7.64,0,13.12-4,16.3-11.74l-3.13-3.1,5.24,3.12a18.37,18.37,0,0,0,5.29,7.74,17.06,17.06,0,0,0,22.94-.88,14.44,14.44,0,0,0,3.26-4.53,3,3,0,0,1,3.16-2c3.18,0,6.4,0,9.53,0h4.36c2.92,0,3.28-.36,3.3-3.29,0-1.62,0-3.23,0-4.85s0-3.49,0-5.24c0-.81-.06-4.2-.64-4.87-1.6-1.87-11.54-13.55-14.95-17.49-1.26-1.44,1.35-3.8,2.26-6,2.61-6.14,3-6.73,4.43-13.19a65.13,65.13,0,0,0,1.27-20c-.67-6.91-1.6-13.92-2.51-20.7-.61-4.56-1.24-9.28-1.78-13.93-.49-4.2-1.08-8.46-1.64-12.58-.28-2-.56-4-.82-6s-.71-2.44-2.73-2.45c-4.69,0-9.47,0-14.09,0H129.36c-4,0-8,0-11.94,0a2.32,2.32,0,0,1-2.68-2,11.88,11.88,0,0,0-11.86-10c-1.65,0-3.32,0-4.94,0h-.81c-2.15,0-2.75.6-2.75,2.74,0,5.87,0,12.54,0,19a3,3,0,0,1-.68,2.27,2.94,2.94,0,0,1-2.21.66c-1.87,0-3.14,0-3.61.34s-.79,1.56-1.25,3.46Q85.7,43,84.79,46.87l-1.59,6.6A2.34,2.34,0,0,0,83.76,56l.11.08a1.72,1.72,0,0,1,.84,1.28,1.69,1.69,0,0,1-.59,1.36,2.06,2.06,0,0,0-.29.45,2.49,2.49,0,0,1-2.67,1.54,4,4,0,0,1-1.29-.5l-.32-.17c-2.66-1.26-3-1.18-4.93,1.12s-3.68,4.41-5.48,6.56l-4.26,5.08-.16.2c-.83,1-1.29,1.59-1.06,2.48a1.67,1.67,0,0,1-1.25,2.06l-.13,0c-6.15,3.19-9.07,1.2-16.73,2.47l-1.8.29c-4.72.75-13,5.61-17.08,7.84-9,4.91-14.25,12.51-15.54,22.59-.65,5.06,2.54,9.74,8.12,11.93a13.83,13.83,0,0,0,4.67,1.2,3.76,3.76,0,0,1,3.3,2.39Z"/><path d="M19.35,121.41c.87,1.43,1.34,2.22,1,3.15s-1.11,1.29-2.6,2A17.06,17.06,0,0,0,22.1,159a17.18,17.18,0,0,0,2.75.22,16.93,16.93,0,0,0,15.66-10.41c.11-.26.22-.52.37-.84.08-.16.16-.34.25-.54L42.22,145l1,2.43c3.11,7.61,8.47,11.55,15.93,11.71,7.75.17,13.37-3.75,16.7-11.64L76.9,145l1,2.49c3.22,7.73,8.71,11.64,16.31,11.64h.06c7.64,0,13.13-4,16.31-11.74l1.09-2.67,1,2.7a18.47,18.47,0,0,0,5.28,7.73,17.08,17.08,0,0,0,23-.87,14.94,14.94,0,0,0,3.26-4.54,3,3,0,0,1,3.16-2c3.17,0,6.4,0,9.52,0h4.37c2.92,0,3.28-.36,3.3-3.29,0-1.62,0-3.23,0-4.85s0-3.49,0-5.23a3.12,3.12,0,0,0-.82-2.16l-4.8-5.62c-3.32-3.9-6.75-7.93-10.16-11.86a2.61,2.61,0,0,1-.16-3.4A66.44,66.44,0,0,0,157,73c-.66-6.91-1.6-13.92-2.5-20.7-.61-4.56-1.24-9.28-1.78-13.93-.49-4.19-1.08-8.45-1.65-12.58-.27-2-.55-4-.82-6s-.7-2.44-2.72-2.45c-4.7,0-9.48,0-14.09,0H121.25c-4,0-8,0-12,0a2.31,2.31,0,0,1-2.68-2,11.87,11.87,0,0,0-11.86-10c-1.64,0-3.32,0-4.94,0H89c-2.15,0-2.74.59-2.75,2.73,0,5.87-.05,12.54,0,19a3,3,0,0,1-.68,2.27,2.89,2.89,0,0,1-2.2.66c-1.88,0-3.14,0-3.62.34s-.78,1.57-1.25,3.46c-.63,2.59-1.24,5.18-1.86,7.77-.53,2.2-1,4.4-1.58,6.6a2.32,2.32,0,0,0,.56,2.55l.11.08a1.78,1.78,0,0,1,.84,1.28,1.73,1.73,0,0,1-.6,1.36,2.52,2.52,0,0,0-.29.45A2.48,2.48,0,0,1,73,55.41a3.64,3.64,0,0,1-1.28-.5l-.33-.17c-2.66-1.26-3-1.18-4.92,1.12S62.82,60.28,61,62.42Q58.89,65,56.77,67.5l-.17.2c-.83,1-1.29,1.59-1.06,2.48a1.67,1.67,0,0,1-1.25,2.06l-.12.05a67.83,67.83,0,0,1-20.52,6.62l-1.81.29c-4.72.75-9.18,1.46-13.28,3.7C9.53,87.8,4.3,95.41,3,105.48c-.64,5.06,2.54,9.75,8.12,11.93a13.89,13.89,0,0,0,4.68,1.2,3.76,3.76,0,0,1,3.3,2.39C19.19,121.14,19.26,121.28,19.35,121.41Zm79.81-50s11.77,5.32,15.65,7.09a.8.8,0,0,0,.17.06,1.8,1.8,0,0,1,1.28,2.69c-1,2.24-3.54,8.39-3.87,9.19a.14.14,0,0,0,0,.06A1.39,1.39,0,0,1,111,91.64a1.5,1.5,0,0,1-.29,0l-.13,0S74.47,75.36,62.81,70.16a2.22,2.22,0,0,1-1.41-1.39,2.19,2.19,0,0,1,.75-1.89S66.4,62,68,60a2.83,2.83,0,0,1,4-.92C78.93,62.27,97.1,70.48,99.16,71.41Zm4-43.8a2.34,2.34,0,0,1-.57,1.8A2.23,2.23,0,0,1,101,30h-.1c-2.78-.05-5.67-.05-8.58,0a2.29,2.29,0,0,1-1.74-.56A2.33,2.33,0,0,1,90,27.63c0-1.95,0-12.44,0-13.73,0-2.07,0-3.22.79-4s1.9-.79,4.08-.78a8,8,0,0,1,8.27,8.11C103.15,19.11,103.13,26,103.15,27.61Zm7.22,6.1a2.42,2.42,0,0,1,1.82.61,2.35,2.35,0,0,1,.57,1.81c-.06,2.54-.1,5.54,0,8.57a2.64,2.64,0,0,1-.6,2,2.7,2.7,0,0,1-2.1.64c-3.38,0-24.66,0-28.12,0h-.08a1.95,1.95,0,0,1-2.07-2.77l.33-1.31c.63-2.43,1.28-4.95,1.81-7.44a2.31,2.31,0,0,1,2.53-2.11h0C93.85,33.74,102.32,33.74,110.37,33.71Zm41.37,52.71a126.75,126.75,0,0,1-19.67,10.51,87.66,87.66,0,0,1-34.94,7h-.72c-16.15-.12-81.95,0-86.73-.06-.06,0-1.34.13-1.86-.51a2,2,0,0,1-.17-1.89c2.83-8.73,8.72-14.37,17.41-17.07,3.8-1.19,12.14-2.29,14.24-2.84A2.46,2.46,0,0,1,42,82.65l0,.06c1.72,2.1,5.61,6.68,6.12,6.76a2.37,2.37,0,0,0,2.4-1c.3-.52.06-1.16-.77-2.22S46.32,82,45.91,81.51l-1-1.19,1.44-.58c.45-.18,3.21-1.27,4.12-1.65a2.41,2.41,0,0,1,2.74.67c2.09,2,4.36,4,6.94,6.37.64.57,1.86,1.37,2.93.21s-.05-2.53-.43-2.9c-1.34-1.28-5.22-4.92-5.8-5.47L56,76.15l.85-.82c2-1.93,4.13-2.19,6.73-.82,1.81.95,37.61,17,47.36,21.35a3.71,3.71,0,0,0,2.47.52c.48-.19,6.59-14.34,7.37-16.18.93-2.23.72-2.79-1.39-3.76-5-2.28-33.82-15.32-39.29-17.76a2.28,2.28,0,0,1-1.48-1.45,2.13,2.13,0,0,1,.62-1.86A13.2,13.2,0,0,0,80.88,53c.86-1.68,3.46-1.92,3.46-1.92,6.5,0,30.59.42,31.43-.33a4.5,4.5,0,0,1,3.12-1.37s14.18,0,18.84,0c2.22,0,2.82-.62,2.83-2.84,0-4,0-8.06,0-11.84,0-2.38-.49-2.86-2.91-2.86H119.34a3.86,3.86,0,0,1-3.74-1.6c-.09-.12-.46-.27-1.22-.26s-4.38,0-5.28,0c-.46,0-.94-.39-1.64-.55s-.61-7.17,0-7.8a2.41,2.41,0,0,1,1.91-.61c2,0,26.48,0,34.84,0h.09a2.24,2.24,0,0,1,2.63,2c.6,4.81,6.89,52.9,6.48,60.42A3.43,3.43,0,0,1,151.74,86.42Zm-15-43a2.17,2.17,0,0,1-.54,1.69,2.14,2.14,0,0,1-1.59.56h-.1c-1.87,0-13.85-.06-15.76,0a2.21,2.21,0,0,1-1.69-.55,2.26,2.26,0,0,1-.54-1.69c0-1.82,0-3.73,0-5.69a2.17,2.17,0,0,1,.54-1.65,2.23,2.23,0,0,1,1.71-.57c5.18,0,10.48,0,15.77,0a2,2,0,0,1,2.2,2.27C136.71,39.78,136.72,41.64,136.76,43.38ZM115.6,142.19a13.42,13.42,0,0,1,13.26-13.39h0a13.43,13.43,0,0,1,9.65,4,13,13,0,0,1,3.8,9.43A13.25,13.25,0,0,1,129,155.43,13.43,13.43,0,0,1,115.6,142.19Zm-34.65,0a13.34,13.34,0,0,1,22.71-9.58,13.05,13.05,0,0,1,4,9.27,13.47,13.47,0,0,1-3.77,9.45,13,13,0,0,1-9.2,4.06h-.18a13.57,13.57,0,0,1-9.57-3.81,13.11,13.11,0,0,1-2.9-4.26A13.59,13.59,0,0,1,81,142.23Zm-34.82,0A13.16,13.16,0,0,1,50,132.81a13.53,13.53,0,0,1,4.33-3,12.59,12.59,0,0,1,5-1h0a13.48,13.48,0,0,1,9.64,3.95,13.12,13.12,0,0,1,3.83,9.42,13.32,13.32,0,0,1-13.14,13.26h0a13.61,13.61,0,0,1-9.53-3.83A13.18,13.18,0,0,1,46.13,142.23Zm-18.87-17a2.73,2.73,0,0,1-2-1.23c-.45-.79-.91-1.57-1.41-2.42l-1.64-2.8s104.7-2.89,120.28-3.37a3.71,3.71,0,0,1,3.2,1.45c4.44,5.25,9.1,10.75,14.28,16.79a3.1,3.1,0,0,1,.81,2.17c0,1.85-.06,4,0,6a2.32,2.32,0,0,1-.55,1.75,2.26,2.26,0,0,1-1.69.58l-8.71,0c-1.47,0-2.36,0-3-.64s-.7-1.47-.79-3v-.05a15.19,15.19,0,0,0-.31-2,17.14,17.14,0,0,0-27.42-9.58,18.87,18.87,0,0,0-5.55,8l-1,2.66-1.1-2.62c-3.22-7.77-8.72-11.72-16.34-11.74h0c-7.5,0-13,3.91-16.32,11.64l-1.09,2.52-1-2.56c-2.7-6.85-8-11.07-14.54-11.55-8.37-.62-14.44,3.23-18,11.44l-.56,1.25-1.13-.77,0,0a1.28,1.28,0,0,1-.57-.62C38.33,130,33.86,126.3,27.26,125.23Zm-2.4,3.57h0a13.32,13.32,0,0,1,0,26.63h0a13.34,13.34,0,0,1-9.47-3.86,13.41,13.41,0,0,1-.05-18.88A13.32,13.32,0,0,1,24.86,128.8ZM18.1,115.1c-1.77,0-8.42-.84-10.7-5.71L7,108.47a3.24,3.24,0,0,1,2.75-.81c.1,0,90,.75,102.68-1a86.41,86.41,0,0,0,21.95-6.55A122.43,122.43,0,0,0,150.09,92l2.32-1.42-.62,2.65a64.84,64.84,0,0,1-6.53,16.69,3.3,3.3,0,0,1-3,1.87Z"/><path d="M121.48,142.11a7.72,7.72,0,0,0,7.52,7.52,7.25,7.25,0,0,0,5.18-2.14,7.44,7.44,0,0,0,2.25-5.36,7.52,7.52,0,0,0-2.2-5.37,7.32,7.32,0,0,0-5.19-2.14h0A7.69,7.69,0,0,0,121.48,142.11Zm3.76-.19a3.83,3.83,0,0,1,3.76-3.49h.06a3.67,3.67,0,0,1,2.6,1.1,3.81,3.81,0,0,1,1,2.75,3.66,3.66,0,0,1-3.63,3.54h-.11a3.83,3.83,0,0,1-2.67-1.28A3.64,3.64,0,0,1,125.24,141.92Z"/><path d="M53,142.17a7.7,7.7,0,0,0,7.55,7.46h0a7.51,7.51,0,0,0,0-15h0a7.7,7.7,0,0,0-5.41,2.32A7.34,7.34,0,0,0,53,142.17Zm3.76,0a3.67,3.67,0,0,1,1-2.57,3.75,3.75,0,0,1,5.31-.22A3.62,3.62,0,0,1,64.19,142a3.67,3.67,0,0,1-3.48,3.79h-.15a3.75,3.75,0,0,1-2.55-1,3.8,3.8,0,0,1-.88-1.19A3.61,3.61,0,0,1,56.78,142.21Z"/><path d="M86.81,142.11a7.56,7.56,0,0,0,2.26,5.34,7.27,7.27,0,0,0,5.16,2.18h.06a7.79,7.79,0,0,0,7.5-7.45,7.52,7.52,0,0,0-2.18-5.25,7.64,7.64,0,0,0-5.31-2.31h-.06a7.31,7.31,0,0,0-5.2,2.16,7.52,7.52,0,0,0-1.65,2.44A7.42,7.42,0,0,0,86.81,142.11ZM90.6,142a3.6,3.6,0,0,1,3.67-3.59h0A3.74,3.74,0,0,1,97,139.55a3.67,3.67,0,0,1,1,2.65,3.83,3.83,0,0,1-3.7,3.62h-.07a3.59,3.59,0,0,1-2.54-1A3.81,3.81,0,0,1,90.6,142Z"/><path d="M18.35,142.07a7.6,7.6,0,0,0,7.42,7.56h0a7.51,7.51,0,1,0,0-15h0a7.36,7.36,0,0,0-5.21,2.17,7.59,7.59,0,0,0-1.65,2.43A7.47,7.47,0,0,0,18.35,142.07Zm3.8,0a3.59,3.59,0,0,1,3.58-3.68,3.76,3.76,0,0,1,2.73,1.07,3.67,3.67,0,0,1,1.09,2.63,3.81,3.81,0,0,1-3.63,3.69h-.1a3.61,3.61,0,0,1-2.55-1,3.69,3.69,0,0,1-1.12-2.69Z"/></svg>